<svg xmlns="http://www.w3.org/2000/svg" xmlns:xlink="http://www.w3.org/1999/xlink" width="500" zoomAndPan="magnify" viewBox="0 0 375 374.999991" height="500" preserveAspectRatio="xMidYMid meet" version="1.0"><defs><clipPath id="3764a3e3ec"><path d="M 107.648438 0 L 151 0 L 151 48.75 L 107.648438 48.75 Z M 107.648438 0 " clip-rule="nonzero"/></clipPath><clipPath id="3af913936f"><path d="M 159.988281 0 L 203.488281 0 L 203.488281 48.75 L 159.988281 48.75 Z M 159.988281 0 " clip-rule="nonzero"/></clipPath><clipPath id="f8d10eb5af"><path d="M 32 14.328125 L 226 14.328125 L 226 286 L 32 286 Z M 32 14.328125 " clip-rule="nonzero"/></clipPath><clipPath id="ccec4df5eb"><path d="M 204 105 L 326 105 L 326 365.328125 L 204 365.328125 Z M 204 105 " clip-rule="nonzero"/></clipPath><clipPath id="766fb2bb8b"><path d="M 258 14.328125 L 320 14.328125 L 320 73 L 258 73 Z M 258 14.328125 " clip-rule="nonzero"/></clipPath><clipPath id="693e6ed5bb"><path d="M 326.578125 0 L 374.996094 0 L 374.996094 48 L 326.578125 48 Z M 326.578125 0 " clip-rule="nonzero"/></clipPath></defs><g clip-path="url(#3764a3e3ec)"><path fill="#ffffff" d="M 150.558594 0.40625 C 150.359375 0.1875 150.082031 0.0664062 149.785156 0.0664062 L 108.765625 0.0664062 C 108.472656 0.0664062 108.191406 0.1875 107.992188 0.40625 C 107.792969 0.625 107.695312 0.914062 107.71875 1.207031 L 111.417969 42.601562 C 111.453125 43.03125 111.757812 43.398438 112.175781 43.515625 L 128.984375 48.316406 C 129.078125 48.34375 129.171875 48.355469 129.269531 48.355469 C 129.367188 48.355469 129.464844 48.34375 129.558594 48.316406 L 146.382812 43.515625 C 146.800781 43.398438 147.101562 43.03125 147.140625 42.601562 L 150.832031 1.207031 C 150.859375 0.914062 150.757812 0.625 150.558594 0.40625 Z M 141.714844 14.675781 L 121.964844 14.675781 L 122.433594 20.019531 L 141.238281 20.019531 L 139.828125 35.8125 L 129.269531 39.003906 L 129.164062 38.972656 L 118.726562 35.808594 L 118.160156 29.375 L 123.269531 29.375 L 123.496094 31.871094 L 129.328125 33.09375 L 135.058594 31.871094 L 135.667969 25.113281 L 117.773438 25.113281 L 116.386719 9.570312 L 142.171875 9.570312 Z M 141.714844 14.675781 " fill-opacity="1" fill-rule="nonzero"/></g><g clip-path="url(#3af913936f)"><path fill="#ffffff" d="M 203.320312 0 L 199.496094 43.324219 L 181.65625 48.421875 L 163.816406 43.324219 L 159.996094 0 Z M 171.210938 28.035156 L 176.308594 28.035156 L 176.429688 31.21875 L 181.65625 33 L 186.882812 31.21875 L 187.261719 25.484375 L 176.054688 25.484375 L 175.792969 20.386719 L 187.519531 20.386719 L 187.898438 15.292969 L 170.320312 15.292969 L 169.933594 10.195312 L 193.253906 10.195312 L 192.617188 20.386719 L 191.722656 35.042969 L 181.65625 38.355469 L 171.59375 35.042969 Z M 171.210938 28.035156 " fill-opacity="1" fill-rule="evenodd"/></g><g clip-path="url(#f8d10eb5af)"><path fill="#f8a230" d="M 225.421875 14.328125 L 164.351562 14.328125 L 164.351562 101.082031 C 155.234375 98.882812 147.691406 98.148438 137.789062 98.148438 C 73.96875 98.148438 32.785156 135.8125 32.785156 193.839844 C 32.785156 254.070312 71.609375 285.425781 146.199219 285.5 C 171.113281 285.5 194.140625 283.308594 225.421875 277.742188 Z M 145.902344 145.621094 C 153.445312 145.621094 159.339844 146.351562 166.492188 148.550781 L 166.492188 239.925781 C 157.769531 241.023438 152.265625 241.382812 145.507812 241.382812 C 114.230469 241.382812 97.171875 224.679688 97.171875 194.421875 C 97.171875 163.351562 115.015625 145.621094 145.902344 145.621094 Z M 145.902344 145.621094 " fill-opacity="1" fill-rule="evenodd"/></g><g clip-path="url(#ccec4df5eb)"><path fill="#f8a230" d="M 325.285156 237.109375 L 325.285156 105.222656 L 264.292969 105.222656 L 264.292969 217.472656 C 264.292969 267 261.542969 285.832031 252.820312 302.089844 C 244.488281 317.988281 231.441406 328.410156 204.484375 340.199219 L 261.152344 365.328125 C 288.109375 352.71875 301.15625 341.304688 311.058594 323.199219 C 321.671875 304.371094 325.285156 282.527344 325.285156 237.109375 Z M 325.285156 237.109375 " fill-opacity="1" fill-rule="nonzero"/></g><g clip-path="url(#766fb2bb8b)"><path fill="#f8a230" d="M 319.207031 14.328125 L 258.140625 14.328125 L 258.140625 72.726562 L 319.207031 72.726562 Z M 319.207031 14.328125 " fill-opacity="1" fill-rule="nonzero"/></g><g clip-path="url(#693e6ed5bb)"><path fill="#ffffff" d="M 350.789062 0 C 337.410156 0 326.578125 10.835938 326.578125 24.210938 C 326.578125 34.925781 333.507812 43.972656 343.128906 47.179688 C 344.339844 47.394531 344.792969 46.667969 344.792969 46.03125 C 344.792969 45.457031 344.765625 43.550781 344.765625 41.523438 C 338.683594 42.640625 337.109375 40.039062 336.625 38.675781 C 336.351562 37.980469 335.171875 35.832031 334.140625 35.257812 C 333.292969 34.804688 332.085938 33.683594 334.113281 33.652344 C 336.019531 33.621094 337.378906 35.410156 337.835938 36.136719 C 340.011719 39.796875 343.492188 38.769531 344.886719 38.132812 C 345.097656 36.558594 345.734375 35.5 346.429688 34.894531 C 341.042969 34.289062 335.414062 32.199219 335.414062 22.941406 C 335.414062 20.308594 336.351562 18.128906 337.894531 16.433594 C 337.652344 15.828125 336.804688 13.347656 338.136719 10.015625 C 338.136719 10.015625 340.164062 9.382812 344.792969 12.5 C 346.730469 11.953125 348.789062 11.683594 350.847656 11.683594 C 352.90625 11.683594 354.964844 11.953125 356.898438 12.5 C 361.53125 9.351562 363.558594 10.015625 363.558594 10.015625 C 364.890625 13.347656 364.042969 15.828125 363.800781 16.433594 C 365.34375 18.128906 366.28125 20.277344 366.28125 22.941406 C 366.28125 32.230469 360.621094 34.289062 355.234375 34.894531 C 356.113281 35.652344 356.871094 37.101562 356.871094 39.371094 C 356.871094 42.609375 356.839844 45.214844 356.839844 46.03125 C 356.839844 46.667969 357.292969 47.421875 358.503906 47.179688 C 363.3125 45.558594 367.488281 42.46875 370.445312 38.347656 C 373.40625 34.226562 374.996094 29.285156 375 24.210938 C 375 10.835938 364.164062 0 350.789062 0 Z M 350.789062 0 " fill-opacity="1" fill-rule="evenodd"/></g></svg>