<svg xmlns="http://www.w3.org/2000/svg" xmlns:xlink="http://www.w3.org/1999/xlink" width="500" zoomAndPan="magnify" viewBox="0 0 375 374.999991" height="500" preserveAspectRatio="xMidYMid meet" version="1.0"><defs><clipPath id="8ed8f007f9"><path d="M 29 61.300781 L 346 61.300781 L 346 314 L 29 314 Z M 29 61.300781 " clip-rule="nonzero"/></clipPath></defs><g clip-path="url(#8ed8f007f9)"><path fill="#00b2e9" d="M 61.304688 61.300781 C 45.152344 61.300781 31.972656 73.488281 30.128906 89.152344 L 187.5 187.496094 L 344.871094 89.152344 C 343.027344 73.488281 329.84375 61.300781 313.691406 61.300781 Z M 29.757812 120.484375 L 29.757812 282.140625 C 29.757812 299.570312 43.875 313.6875 61.304688 313.6875 L 313.691406 313.6875 C 331.121094 313.6875 345.242188 299.570312 345.242188 282.140625 L 345.242188 120.484375 L 195.847656 213.835938 C 190.738281 217.023438 184.261719 217.023438 179.148438 213.835938 Z M 29.757812 120.484375 " fill-opacity="1" fill-rule="nonzero"/></g></svg>