<svg xmlns="http://www.w3.org/2000/svg" xmlns:xlink="http://www.w3.org/1999/xlink" width="500" zoomAndPan="magnify" viewBox="0 0 375 374.999991" height="500" preserveAspectRatio="xMidYMid meet" version="1.0"><defs><clipPath id="70e2efcfd1"><path d="M 14.535156 14.535156 L 360.285156 14.535156 L 360.285156 360.285156 L 14.535156 360.285156 Z M 14.535156 14.535156 " clip-rule="nonzero"/></clipPath></defs><g clip-path="url(#70e2efcfd1)"><path fill="#f8a230" d="M 353.761719 172.003906 L 202.796875 21.0625 C 202.28125 20.546875 201.742188 20.058594 201.179688 19.59375 C 200.613281 19.132812 200.03125 18.699219 199.425781 18.292969 C 198.816406 17.886719 198.191406 17.511719 197.550781 17.167969 C 196.90625 16.824219 196.25 16.515625 195.574219 16.234375 C 194.902344 15.957031 194.214844 15.710938 193.519531 15.5 C 192.820312 15.285156 192.113281 15.109375 191.398438 14.96875 C 190.683594 14.824219 189.960938 14.71875 189.238281 14.648438 C 188.511719 14.574219 187.785156 14.539062 187.054688 14.539062 C 186.324219 14.539062 185.597656 14.574219 184.871094 14.648438 C 184.148438 14.71875 183.425781 14.824219 182.710938 14.96875 C 181.996094 15.109375 181.289062 15.285156 180.589844 15.5 C 179.894531 15.710938 179.207031 15.957031 178.535156 16.234375 C 177.859375 16.515625 177.203125 16.824219 176.558594 17.167969 C 175.917969 17.511719 175.292969 17.886719 174.6875 18.292969 C 174.078125 18.699219 173.496094 19.132812 172.929688 19.59375 C 172.367188 20.058594 171.828125 20.546875 171.3125 21.0625 L 139.980469 52.394531 L 179.738281 92.15625 C 180.90625 91.757812 182.09375 91.445312 183.304688 91.210938 C 184.515625 90.980469 185.738281 90.832031 186.96875 90.773438 C 188.199219 90.710938 189.429688 90.734375 190.65625 90.847656 C 191.886719 90.957031 193.097656 91.152344 194.300781 91.433594 C 195.5 91.714844 196.675781 92.078125 197.824219 92.523438 C 198.972656 92.96875 200.085938 93.492188 201.164062 94.09375 C 202.238281 94.695312 203.269531 95.367188 204.25 96.113281 C 205.234375 96.855469 206.15625 97.664062 207.027344 98.539062 C 207.894531 99.414062 208.699219 100.34375 209.4375 101.332031 C 210.175781 102.320312 210.84375 103.351562 211.4375 104.433594 C 212.03125 105.511719 212.546875 106.628906 212.984375 107.78125 C 213.421875 108.933594 213.777344 110.113281 214.050781 111.3125 C 214.324219 112.515625 214.511719 113.730469 214.613281 114.960938 C 214.71875 116.1875 214.734375 117.417969 214.667969 118.648438 C 214.597656 119.878906 214.441406 121.097656 214.203125 122.308594 C 213.964844 123.515625 213.640625 124.703125 213.234375 125.867188 L 251.546875 164.203125 C 252.953125 163.707031 254.394531 163.332031 255.863281 163.082031 C 257.332031 162.828125 258.816406 162.703125 260.304688 162.703125 C 261.796875 162.699219 263.277344 162.824219 264.75 163.074219 C 266.21875 163.320312 267.660156 163.691406 269.066406 164.1875 C 270.476562 164.679688 271.832031 165.285156 273.136719 166.007812 C 274.441406 166.730469 275.679688 167.554688 276.84375 168.488281 C 278.007812 169.417969 279.085938 170.441406 280.078125 171.554688 C 281.070312 172.667969 281.964844 173.859375 282.753906 175.121094 C 283.546875 176.386719 284.226562 177.707031 284.792969 179.089844 C 285.359375 180.46875 285.808594 181.882812 286.136719 183.339844 C 286.464844 184.796875 286.667969 186.265625 286.746094 187.757812 C 286.824219 189.246094 286.777344 190.730469 286.605469 192.214844 C 286.429688 193.695312 286.136719 195.152344 285.714844 196.582031 C 285.296875 198.015625 284.761719 199.402344 284.109375 200.742188 C 283.453125 202.082031 282.691406 203.359375 281.824219 204.570312 C 280.953125 205.78125 279.988281 206.914062 278.925781 207.960938 C 277.851562 209.042969 276.695312 210.023438 275.453125 210.902344 C 274.210938 211.785156 272.902344 212.550781 271.527344 213.207031 C 270.152344 213.859375 268.730469 214.394531 267.261719 214.800781 C 265.796875 215.210938 264.304688 215.492188 262.789062 215.644531 C 261.273438 215.796875 259.757812 215.820312 258.238281 215.710938 C 256.71875 215.601562 255.222656 215.363281 253.742188 214.996094 C 252.265625 214.628906 250.828125 214.136719 249.4375 213.523438 C 248.042969 212.90625 246.714844 212.175781 245.445312 211.332031 C 244.179688 210.488281 242.992188 209.542969 241.886719 208.492188 C 240.785156 207.445312 239.777344 206.308594 238.871094 205.085938 C 237.960938 203.863281 237.164062 202.570312 236.480469 201.210938 C 235.792969 199.851562 235.230469 198.441406 234.785156 196.984375 C 234.34375 195.527344 234.03125 194.042969 233.84375 192.53125 C 233.65625 191.023438 233.601562 189.503906 233.675781 187.984375 C 233.75 186.464844 233.953125 184.960938 234.289062 183.472656 C 234.621094 181.988281 235.082031 180.542969 235.664062 179.136719 L 199.945312 143.394531 L 199.945312 237.457031 C 200.84375 237.902344 201.710938 238.394531 202.550781 238.9375 C 203.394531 239.480469 204.203125 240.070312 204.976562 240.703125 C 205.75 241.339844 206.488281 242.015625 207.183594 242.730469 C 207.882812 243.449219 208.539062 244.203125 209.148438 244.996094 C 209.761719 245.789062 210.328125 246.613281 210.847656 247.46875 C 211.367188 248.324219 211.835938 249.207031 212.253906 250.117188 C 212.671875 251.023438 213.039062 251.953125 213.351562 252.90625 C 213.664062 253.855469 213.925781 254.820312 214.128906 255.800781 C 214.332031 256.78125 214.480469 257.769531 214.574219 258.765625 C 214.664062 259.765625 214.699219 260.761719 214.679688 261.761719 C 214.65625 262.765625 214.578125 263.761719 214.445312 264.753906 C 214.3125 265.746094 214.121094 266.726562 213.875 267.695312 C 213.632812 268.667969 213.332031 269.621094 212.976562 270.558594 C 212.625 271.492188 212.21875 272.40625 211.761719 273.296875 C 211.304688 274.1875 210.800781 275.050781 210.246094 275.882812 C 209.691406 276.71875 209.089844 277.515625 208.445312 278.28125 C 207.800781 279.046875 207.113281 279.773438 206.382812 280.460938 C 205.65625 281.148438 204.894531 281.792969 204.09375 282.394531 C 203.292969 282.992188 202.460938 283.546875 201.597656 284.054688 C 200.730469 284.5625 199.84375 285.015625 198.929688 285.421875 C 198.011719 285.828125 197.078125 286.179688 196.121094 286.480469 C 195.167969 286.78125 194.199219 287.023438 193.214844 287.214844 C 192.230469 287.40625 191.242188 287.539062 190.242188 287.617188 C 189.246094 287.691406 188.246094 287.714844 187.246094 287.679688 C 186.246094 287.640625 185.25 287.550781 184.261719 287.402344 C 183.269531 287.253906 182.292969 287.050781 181.324219 286.789062 C 180.359375 286.53125 179.410156 286.21875 178.476562 285.851562 C 177.546875 285.484375 176.640625 285.066406 175.753906 284.59375 C 174.871094 284.125 174.015625 283.605469 173.191406 283.039062 C 172.367188 282.472656 171.574219 281.859375 170.820312 281.203125 C 170.0625 280.546875 169.347656 279.851562 168.671875 279.113281 C 167.996094 278.375 167.363281 277.601562 166.773438 276.792969 C 166.183594 275.984375 165.640625 275.144531 165.148438 274.273438 C 164.652344 273.402344 164.210938 272.507812 163.820312 271.585938 C 163.425781 270.664062 163.085938 269.726562 162.800781 268.765625 C 162.515625 267.804688 162.285156 266.832031 162.109375 265.847656 C 161.933594 264.863281 161.8125 263.871094 161.75 262.871094 C 161.6875 261.871094 161.683594 260.871094 161.730469 259.871094 C 161.78125 258.871094 161.890625 257.878906 162.050781 256.890625 C 162.214844 255.902344 162.433594 254.929688 162.707031 253.964844 C 162.980469 253.003906 163.304688 252.058594 163.6875 251.132812 C 164.066406 250.207031 164.5 249.304688 164.980469 248.425781 C 165.464844 247.550781 165.996094 246.703125 166.574219 245.886719 C 167.152344 245.070312 167.777344 244.289062 168.441406 243.542969 C 169.109375 242.796875 169.816406 242.089844 170.566406 241.425781 C 171.3125 240.757812 172.09375 240.136719 172.914062 239.558594 C 173.730469 238.980469 174.578125 238.453125 175.457031 237.972656 C 176.332031 237.488281 177.234375 237.058594 178.164062 236.679688 L 178.164062 141.75 C 177.355469 141.421875 176.566406 141.050781 175.796875 140.640625 C 175.027344 140.234375 174.277344 139.789062 173.550781 139.304688 C 172.824219 138.824219 172.125 138.304688 171.449219 137.753906 C 170.773438 137.203125 170.128906 136.621094 169.507812 136.003906 C 168.890625 135.390625 168.304688 134.746094 167.753906 134.070312 C 167.199219 133.398438 166.679688 132.699219 166.191406 131.976562 C 165.707031 131.25 165.261719 130.503906 164.847656 129.734375 C 164.4375 128.964844 164.066406 128.179688 163.730469 127.375 C 163.398438 126.566406 163.105469 125.746094 162.851562 124.914062 C 162.597656 124.078125 162.386719 123.234375 162.21875 122.378906 C 162.050781 121.523438 161.921875 120.660156 161.839844 119.792969 C 161.753906 118.925781 161.714844 118.054688 161.714844 117.183594 C 161.714844 116.3125 161.761719 115.441406 161.847656 114.574219 C 161.9375 113.707031 162.066406 112.847656 162.238281 111.992188 C 162.410156 111.136719 162.625 110.292969 162.882812 109.460938 C 163.136719 108.625 163.433594 107.808594 163.769531 107.003906 L 124.59375 67.804688 L 21.085938 171.3125 C 20.566406 171.828125 20.078125 172.367188 19.617188 172.929688 C 19.152344 173.496094 18.71875 174.078125 18.3125 174.6875 C 17.910156 175.292969 17.535156 175.917969 17.191406 176.558594 C 16.847656 177.203125 16.535156 177.859375 16.257812 178.535156 C 15.976562 179.207031 15.730469 179.894531 15.519531 180.589844 C 15.308594 181.289062 15.132812 181.996094 14.988281 182.710938 C 14.847656 183.425781 14.738281 184.148438 14.667969 184.871094 C 14.597656 185.597656 14.5625 186.324219 14.5625 187.054688 C 14.5625 187.785156 14.597656 188.511719 14.667969 189.238281 C 14.738281 189.960938 14.847656 190.683594 14.988281 191.398438 C 15.132812 192.113281 15.308594 192.820312 15.519531 193.519531 C 15.730469 194.214844 15.976562 194.902344 16.257812 195.574219 C 16.535156 196.25 16.847656 196.90625 17.191406 197.550781 C 17.535156 198.191406 17.910156 198.816406 18.3125 199.425781 C 18.71875 200.03125 19.152344 200.613281 19.617188 201.179688 C 20.078125 201.742188 20.566406 202.28125 21.085938 202.796875 L 172.046875 353.761719 C 172.5625 354.277344 173.101562 354.765625 173.664062 355.226562 C 174.230469 355.691406 174.8125 356.125 175.421875 356.53125 C 176.027344 356.933594 176.652344 357.308594 177.292969 357.652344 C 177.9375 357.996094 178.59375 358.308594 179.269531 358.589844 C 179.941406 358.867188 180.628906 359.113281 181.328125 359.324219 C 182.023438 359.535156 182.730469 359.714844 183.445312 359.855469 C 184.160156 359.996094 184.882812 360.105469 185.605469 360.175781 C 186.332031 360.246094 187.058594 360.285156 187.789062 360.285156 C 188.519531 360.285156 189.246094 360.246094 189.972656 360.175781 C 190.699219 360.105469 191.417969 359.996094 192.132812 359.855469 C 192.847656 359.714844 193.554688 359.535156 194.253906 359.324219 C 194.949219 359.113281 195.636719 358.867188 196.308594 358.589844 C 196.984375 358.308594 197.640625 357.996094 198.285156 357.652344 C 198.929688 357.308594 199.550781 356.933594 200.160156 356.53125 C 200.765625 356.125 201.351562 355.691406 201.914062 355.226562 C 202.476562 354.765625 203.015625 354.277344 203.53125 353.761719 L 353.78125 203.511719 C 354.296875 202.996094 354.785156 202.457031 355.25 201.890625 C 355.710938 201.328125 356.144531 200.742188 356.550781 200.136719 C 356.957031 199.53125 357.332031 198.90625 357.675781 198.261719 C 358.019531 197.621094 358.332031 196.960938 358.609375 196.289062 C 358.890625 195.613281 359.132812 194.929688 359.347656 194.230469 C 359.558594 193.53125 359.734375 192.828125 359.878906 192.113281 C 360.019531 191.394531 360.125 190.675781 360.199219 189.949219 C 360.269531 189.222656 360.304688 188.496094 360.304688 187.769531 C 360.304688 187.039062 360.269531 186.3125 360.199219 185.585938 C 360.125 184.859375 360.019531 184.140625 359.878906 183.425781 C 359.734375 182.710938 359.558594 182.003906 359.347656 181.304688 C 359.132812 180.605469 358.890625 179.921875 358.609375 179.246094 C 358.332031 178.574219 358.019531 177.914062 357.675781 177.273438 C 357.332031 176.628906 356.957031 176.003906 356.550781 175.398438 C 356.144531 174.792969 355.710938 174.207031 355.25 173.644531 C 354.785156 173.082031 354.296875 172.539062 353.78125 172.027344 " fill-opacity="1" fill-rule="nonzero"/></g></svg>