<svg xmlns="http://www.w3.org/2000/svg" xmlns:xlink="http://www.w3.org/1999/xlink" width="500" zoomAndPan="magnify" viewBox="0 0 375 374.999991" height="500" preserveAspectRatio="xMidYMid meet" version="1.0"><defs><clipPath id="c32992b38a"><path d="M 14.535156 14.535156 L 360.285156 14.535156 L 360.285156 352 L 14.535156 352 Z M 14.535156 14.535156 " clip-rule="nonzero"/></clipPath></defs><g clip-path="url(#c32992b38a)"><path fill="#f8a230" d="M 187.410156 14.535156 C 91.898438 14.535156 14.535156 91.898438 14.535156 187.410156 C 14.535156 263.910156 64.023438 328.519531 132.738281 351.425781 C 141.382812 352.9375 144.625 347.753906 144.625 343.214844 C 144.625 339.109375 144.410156 325.496094 144.410156 311.015625 C 100.972656 319.011719 89.738281 300.429688 86.28125 290.703125 C 84.335938 285.734375 75.90625 270.390625 68.558594 266.285156 C 62.507812 263.042969 53.867188 255.046875 68.34375 254.832031 C 81.957031 254.617188 91.683594 267.367188 94.921875 272.550781 C 110.480469 298.699219 135.332031 291.351562 145.273438 286.816406 C 146.785156 275.578125 151.324219 268.015625 156.292969 263.691406 C 117.828125 259.371094 77.636719 244.460938 77.636719 178.335938 C 77.636719 159.535156 84.335938 143.976562 95.355469 131.875 C 93.625 127.554688 87.574219 109.832031 97.085938 86.0625 C 97.085938 86.0625 111.5625 81.527344 144.625 103.78125 C 158.453125 99.894531 173.148438 97.949219 187.84375 97.949219 C 202.539062 97.949219 217.230469 99.894531 231.0625 103.78125 C 264.125 81.308594 278.601562 86.0625 278.601562 86.0625 C 288.109375 109.832031 282.058594 127.554688 280.332031 131.875 C 291.351562 143.976562 298.050781 159.320312 298.050781 178.335938 C 298.050781 244.675781 257.640625 259.371094 219.175781 263.691406 C 225.445312 269.09375 230.847656 279.46875 230.847656 295.675781 C 230.847656 318.796875 230.628906 337.378906 230.628906 343.214844 C 230.628906 347.753906 233.871094 353.15625 242.515625 351.425781 C 276.832031 339.839844 306.65625 317.785156 327.78125 288.363281 C 348.910156 258.941406 360.277344 223.632812 360.285156 187.410156 C 360.285156 91.898438 282.925781 14.535156 187.410156 14.535156 Z M 187.410156 14.535156 " fill-opacity="1" fill-rule="evenodd"/></g></svg>