<svg xmlns="http://www.w3.org/2000/svg" xmlns:xlink="http://www.w3.org/1999/xlink" width="500" zoomAndPan="magnify" viewBox="0 0 375 374.999991" height="500" preserveAspectRatio="xMidYMid meet" version="1.0"><defs><clipPath id="e0b3bfa0e8"><path d="M 34.152344 34.152344 L 340.84375 34.152344 L 340.84375 334 L 34.152344 334 Z M 34.152344 34.152344 " clip-rule="nonzero"/></clipPath></defs><g clip-path="url(#e0b3bfa0e8)"><path fill="#00b2e9" d="M 187.496094 34.152344 C 102.773438 34.152344 34.152344 102.773438 34.152344 187.496094 C 34.152344 255.351562 78.046875 312.664062 139 332.984375 C 146.667969 334.324219 149.542969 329.726562 149.542969 325.699219 C 149.542969 322.058594 149.351562 309.980469 149.351562 297.140625 C 110.824219 304.230469 100.855469 287.746094 97.789062 279.121094 C 96.066406 274.710938 88.589844 261.101562 82.070312 257.460938 C 76.703125 254.585938 69.039062 247.492188 81.878906 247.300781 C 93.957031 247.109375 102.582031 258.417969 105.457031 263.019531 C 119.257812 286.214844 141.300781 279.695312 150.117188 275.671875 C 151.460938 265.703125 155.484375 258.996094 159.894531 255.160156 C 125.777344 251.328125 90.121094 238.101562 90.121094 179.445312 C 90.121094 162.769531 96.066406 148.96875 105.839844 138.234375 C 104.308594 134.402344 98.941406 118.683594 107.375 97.597656 C 107.375 97.597656 120.214844 93.574219 149.542969 113.316406 C 161.8125 109.867188 174.847656 108.140625 187.878906 108.140625 C 200.914062 108.140625 213.949219 109.867188 226.21875 113.316406 C 255.542969 93.382812 268.386719 97.597656 268.386719 97.597656 C 276.820312 118.683594 271.453125 134.402344 269.921875 138.234375 C 279.695312 148.96875 285.636719 162.578125 285.636719 179.445312 C 285.636719 238.292969 249.792969 251.328125 215.675781 255.160156 C 221.234375 259.953125 226.023438 269.152344 226.023438 283.53125 C 226.023438 304.039062 225.832031 320.523438 225.832031 325.699219 C 225.832031 329.726562 228.707031 334.515625 236.375 332.984375 C 266.816406 322.707031 293.269531 303.144531 312.011719 277.042969 C 330.75 250.945312 340.835938 219.625 340.84375 187.496094 C 340.84375 102.773438 272.21875 34.152344 187.496094 34.152344 Z M 187.496094 34.152344 " fill-opacity="1" fill-rule="evenodd"/></g></svg>