<svg xmlns="http://www.w3.org/2000/svg" xmlns:xlink="http://www.w3.org/1999/xlink" width="500" zoomAndPan="magnify" viewBox="0 0 375 374.999991" height="500" preserveAspectRatio="xMidYMid meet" version="1.0"><defs><clipPath id="ca445b24a7"><path d="M 25 5 L 350.292969 5 L 350.292969 370 L 25 370 Z M 25 5 " clip-rule="nonzero"/></clipPath></defs><g clip-path="url(#ca445b24a7)"><path fill="#f8a230" d="M 348.410156 7.972656 C 346.90625 6.332031 344.792969 5.398438 342.566406 5.398438 L 33.214844 5.398438 C 30.992188 5.398438 28.878906 6.332031 27.375 7.972656 C 25.871094 9.609375 25.132812 11.8125 25.332031 14.019531 L 53.199219 326.179688 C 53.492188 329.441406 55.765625 332.191406 58.917969 333.09375 L 185.683594 369.300781 C 186.386719 369.496094 187.117188 369.601562 187.851562 369.601562 C 188.589844 369.601562 189.316406 369.496094 190.019531 369.300781 L 316.890625 333.09375 C 320.042969 332.191406 322.3125 329.441406 322.605469 326.179688 L 350.460938 14.019531 C 350.648438 11.804688 349.90625 9.609375 348.410156 7.972656 Z M 281.6875 115.601562 L 132.753906 115.601562 L 136.292969 155.902344 L 278.101562 155.902344 L 267.46875 274.980469 L 187.84375 299.054688 L 187.058594 298.820312 L 108.34375 274.972656 L 104.054688 226.4375 L 142.605469 226.4375 L 144.296875 245.28125 L 188.289062 254.496094 L 231.492188 245.265625 L 236.09375 194.316406 L 101.15625 194.316406 L 90.695312 77.082031 L 285.140625 77.082031 Z M 281.6875 115.601562 " fill-opacity="1" fill-rule="nonzero"/></g></svg>