<svg xmlns="http://www.w3.org/2000/svg" xmlns:xlink="http://www.w3.org/1999/xlink" width="500" zoomAndPan="magnify" viewBox="0 0 375 374.999991" height="500" preserveAspectRatio="xMidYMid meet" version="1.0"><defs><clipPath id="5b21b4a4c2"><path d="M 12.457031 12.457031 L 362.542969 12.457031 L 362.542969 362.542969 L 12.457031 362.542969 Z M 12.457031 12.457031 " clip-rule="nonzero"/></clipPath></defs><g clip-path="url(#5b21b4a4c2)"><path fill="#f8a230" d="M 12.457031 12.457031 L 362.542969 12.457031 L 362.542969 362.542969 L 12.457031 362.542969 Z M 280.078125 305.9375 C 263.851562 305.9375 254.675781 297.476562 247.625 285.960938 L 220.890625 301.492188 C 230.546875 320.574219 250.285156 335.132812 280.839844 335.132812 C 312.085938 335.132812 335.351562 318.910156 335.351562 289.289062 C 335.351562 261.816406 319.570312 249.597656 291.617188 237.609375 L 283.394531 234.089844 C 269.28125 227.976562 263.167969 223.980469 263.167969 214.109375 C 263.167969 206.125 269.273438 200.011719 278.910156 200.011719 C 288.355469 200.011719 294.441406 203.996094 300.082031 214.109375 L 325.699219 197.664062 C 314.863281 178.601562 299.828125 171.320312 278.910156 171.320312 C 249.53125 171.320312 230.730469 190.105469 230.730469 214.777344 C 230.730469 241.5625 246.5 254.234375 270.242188 264.34375 L 278.464844 267.875 C 293.46875 274.4375 302.417969 278.433594 302.417969 289.710938 C 302.417969 299.125 293.707031 305.9375 280.078125 305.9375 Z M 152.585938 305.734375 C 141.28125 305.734375 136.582031 297.980469 131.414062 288.8125 L 104.632812 305.027344 C 112.390625 321.441406 127.644531 335.074219 153.984375 335.074219 C 183.136719 335.074219 203.109375 319.570312 203.109375 285.507812 L 203.109375 173.199219 L 170.210938 173.199219 L 170.210938 285.0625 C 170.210938 301.503906 163.390625 305.734375 152.585938 305.734375 Z M 152.585938 305.734375 " fill-opacity="1" fill-rule="evenodd"/></g></svg>