<svg xmlns="http://www.w3.org/2000/svg" xmlns:xlink="http://www.w3.org/1999/xlink" width="500" zoomAndPan="magnify" viewBox="0 0 375 374.999991" height="500" preserveAspectRatio="xMidYMid meet" version="1.0"><defs><clipPath id="bd492d9f89"><path d="M 68.695312 5.078125 L 306.445312 5.078125 L 306.445312 369.578125 L 68.695312 369.578125 Z M 68.695312 5.078125 " clip-rule="nonzero"/></clipPath></defs><g clip-path="url(#bd492d9f89)"><path fill="#00b2e9" d="M 306.074219 124.070312 C 306.074219 58.503906 252.933594 5.359375 187.394531 5.359375 C 121.851562 5.359375 68.695312 58.503906 68.695312 124.070312 C 68.695312 125.230469 68.851562 126.386719 68.867188 127.550781 C 68.867188 127.578125 68.785156 127.578125 68.785156 127.578125 C 68.785156 130.222656 68.976562 132.984375 69.285156 135.847656 C 69.34375 136.382812 69.425781 136.871094 69.453125 137.402344 C 69.761719 139.832031 70.144531 142.347656 70.625 144.90625 C 70.933594 146.714844 71.257812 148.5 71.675781 150.246094 C 89.796875 230.699219 187.367188 369.304688 187.367188 369.304688 C 187.367188 369.304688 274.96875 242.40625 299.636719 162.382812 C 301.585938 156.589844 303.117188 150.617188 304.183594 144.480469 C 305.339844 138.386719 306.066406 132.710938 306.066406 127.578125 C 306.066406 127.191406 305.925781 126.855469 305.925781 126.480469 C 305.941406 125.667969 306.074219 124.890625 306.074219 124.070312 Z M 187.394531 186.011719 C 152.667969 186.011719 124.535156 157.882812 124.535156 123.1875 C 124.535156 88.484375 152.652344 60.351562 187.394531 60.351562 C 222.074219 60.351562 250.230469 88.476562 250.230469 123.1875 C 250.226562 157.878906 222.074219 186.011719 187.394531 186.011719 Z M 187.394531 186.011719 " fill-opacity="1" fill-rule="nonzero"/></g></svg>