<svg xmlns="http://www.w3.org/2000/svg" xmlns:xlink="http://www.w3.org/1999/xlink" width="500" zoomAndPan="magnify" viewBox="0 0 375 374.999991" height="500" preserveAspectRatio="xMidYMid meet" version="1.0"><path fill="#00b2e9" d="M 272.507812 167.480469 L 272.425781 170.539062 L 272.507812 173.777344 L 272.429688 176.839844 L 272.507812 180.074219 L 272.433594 183.15625 L 272.507812 186.371094 L 270.460938 275.824219 C 269.976562 297.046875 253.835938 314.625 232.730469 316.910156 C 202.664062 320.164062 172.332031 320.164062 142.265625 316.910156 C 121.160156 314.625 105.015625 297.046875 104.53125 275.824219 L 102.488281 186.371094 L 102.558594 183.136719 L 102.488281 180.074219 L 102.5625 176.851562 L 102.484375 173.777344 L 102.566406 170.550781 L 102.484375 167.480469 L 104.550781 90.683594 C 104.578125 89.613281 104.65625 88.550781 104.773438 87.503906 L 104.820312 87.0625 L 104.859375 86.703125 C 105.875 76.328125 111.625 67.273438 120.007812 61.84375 C 120.632812 61.425781 121.273438 61.03125 121.925781 60.65625 C 122.566406 60.277344 123.21875 59.917969 123.882812 59.578125 C 127.996094 57.410156 132.585938 56 137.472656 55.550781 C 170.753906 52.488281 204.242188 52.488281 237.519531 55.550781 C 242.398438 56 246.980469 57.402344 251.089844 59.570312 C 251.753906 59.90625 252.40625 60.265625 253.046875 60.644531 C 253.722656 61.03125 254.382812 61.4375 255.027344 61.867188 C 263.363281 67.289062 269.089844 76.292969 270.125 86.621094 L 270.222656 87.554688 C 270.339844 88.585938 270.414062 89.628906 270.441406 90.683594 Z M 251.398438 89.660156 L 253.378906 176.136719 L 251.777344 235.707031 C 251.414062 249.097656 241.101562 260.105469 227.757812 261.335938 C 200.972656 263.800781 174.019531 263.800781 147.234375 261.335938 C 133.894531 260.105469 123.578125 249.097656 123.21875 235.707031 L 121.617188 176.144531 L 123.59375 89.660156 C 123.597656 89.472656 123.605469 89.289062 123.617188 89.101562 C 124.363281 84.035156 127.300781 79.664062 131.464844 77.007812 C 133.042969 76.1875 134.789062 75.640625 136.652344 75.4375 C 170.449219 71.777344 204.542969 71.777344 238.339844 75.4375 C 240.203125 75.640625 241.949219 76.183594 243.527344 77.007812 C 247.691406 79.664062 250.628906 84.039062 251.378906 89.105469 C 251.390625 89.289062 251.394531 89.472656 251.398438 89.660156 Z M 187.496094 308.53125 C 197.929688 308.53125 206.386719 300.070312 206.386719 289.640625 C 206.386719 279.207031 197.929688 270.75 187.496094 270.75 C 177.0625 270.75 168.605469 279.207031 168.605469 289.640625 C 168.605469 300.070312 177.0625 308.53125 187.496094 308.53125 Z M 187.496094 308.53125 " fill-opacity="1" fill-rule="evenodd"/></svg>