<svg xmlns="http://www.w3.org/2000/svg" xmlns:xlink="http://www.w3.org/1999/xlink" width="500" zoomAndPan="magnify" viewBox="0 0 375 374.999991" height="500" preserveAspectRatio="xMidYMid meet" version="1.0"><defs><clipPath id="f3207abe5b"><path d="M 107.648438 0 L 151 0 L 151 48.75 L 107.648438 48.75 Z M 107.648438 0 " clip-rule="nonzero"/></clipPath><clipPath id="2ccf096903"><path d="M 159.988281 0 L 203.488281 0 L 203.488281 48.75 L 159.988281 48.75 Z M 159.988281 0 " clip-rule="nonzero"/></clipPath><clipPath id="14f11a63c5"><path d="M 77 12 L 95 12 L 95 48.75 L 77 48.75 Z M 77 12 " clip-rule="nonzero"/></clipPath><clipPath id="360dc08cb6"><path d="M 269.351562 0 L 318 0 L 318 48.75 L 269.351562 48.75 Z M 269.351562 0 " clip-rule="nonzero"/></clipPath><clipPath id="dcc0f8454a"><path d="M 326.578125 0 L 374.996094 0 L 374.996094 48 L 326.578125 48 Z M 326.578125 0 " clip-rule="nonzero"/></clipPath></defs><g clip-path="url(#f3207abe5b)"><path fill="#ffffff" d="M 150.558594 0.40625 C 150.359375 0.1875 150.082031 0.0664062 149.785156 0.0664062 L 108.765625 0.0664062 C 108.472656 0.0664062 108.191406 0.1875 107.992188 0.40625 C 107.792969 0.625 107.695312 0.914062 107.71875 1.207031 L 111.417969 42.601562 C 111.453125 43.03125 111.757812 43.398438 112.175781 43.515625 L 128.984375 48.316406 C 129.078125 48.34375 129.171875 48.355469 129.269531 48.355469 C 129.367188 48.355469 129.464844 48.34375 129.558594 48.316406 L 146.382812 43.515625 C 146.800781 43.398438 147.101562 43.03125 147.140625 42.601562 L 150.832031 1.207031 C 150.859375 0.914062 150.757812 0.625 150.558594 0.40625 Z M 141.714844 14.675781 L 121.964844 14.675781 L 122.433594 20.019531 L 141.238281 20.019531 L 139.828125 35.8125 L 129.269531 39.003906 L 129.164062 38.972656 L 118.726562 35.808594 L 118.160156 29.375 L 123.269531 29.375 L 123.496094 31.871094 L 129.328125 33.09375 L 135.058594 31.871094 L 135.667969 25.113281 L 117.773438 25.113281 L 116.386719 9.570312 L 142.171875 9.570312 Z M 141.714844 14.675781 " fill-opacity="1" fill-rule="nonzero"/></g><g clip-path="url(#2ccf096903)"><path fill="#ffffff" d="M 203.320312 0 L 199.496094 43.324219 L 181.65625 48.421875 L 163.816406 43.324219 L 159.996094 0 Z M 171.210938 28.035156 L 176.308594 28.035156 L 176.429688 31.21875 L 181.65625 33 L 186.882812 31.21875 L 187.261719 25.484375 L 176.054688 25.484375 L 175.792969 20.386719 L 187.519531 20.386719 L 187.898438 15.292969 L 170.320312 15.292969 L 169.933594 10.195312 L 193.253906 10.195312 L 192.617188 20.386719 L 191.722656 35.042969 L 181.65625 38.355469 L 171.59375 35.042969 Z M 171.210938 28.035156 " fill-opacity="1" fill-rule="evenodd"/></g><path fill="#ffffff" d="M 80.730469 0 L 72.304688 0 L 72.304688 11.96875 C 71.046875 11.664062 70.007812 11.5625 68.640625 11.5625 C 59.835938 11.5625 54.15625 16.757812 54.15625 24.765625 C 54.15625 33.074219 59.511719 37.398438 69.800781 37.410156 C 73.238281 37.410156 76.414062 37.105469 80.730469 36.339844 Z M 69.761719 18.113281 C 70.800781 18.113281 71.613281 18.214844 72.601562 18.515625 L 72.601562 31.121094 C 71.398438 31.273438 70.636719 31.324219 69.707031 31.324219 C 65.390625 31.324219 63.039062 29.019531 63.039062 24.84375 C 63.039062 20.558594 65.5 18.113281 69.761719 18.113281 Z M 69.761719 18.113281 " fill-opacity="1" fill-rule="evenodd"/><g clip-path="url(#14f11a63c5)"><path fill="#ffffff" d="M 94.507812 30.734375 L 94.507812 12.539062 L 86.09375 12.539062 L 86.09375 28.023438 C 86.09375 34.855469 85.714844 37.453125 84.511719 39.699219 C 83.359375 41.890625 81.5625 43.328125 77.84375 44.953125 L 85.660156 48.421875 C 89.378906 46.683594 91.179688 45.109375 92.542969 42.609375 C 94.007812 40.011719 94.507812 37 94.507812 30.734375 Z M 94.507812 30.734375 " fill-opacity="1" fill-rule="nonzero"/></g><path fill="#ffffff" d="M 93.667969 0 L 85.246094 0 L 85.246094 8.054688 L 93.667969 8.054688 Z M 93.667969 0 " fill-opacity="1" fill-rule="nonzero"/><path fill="#f8a230" d="M 266.257812 115.347656 L 266.257812 146.546875 C 266.242188 147.988281 266.15625 149.425781 266 150.855469 C 265.847656 152.289062 265.625 153.710938 265.335938 155.121094 C 265.046875 156.535156 264.6875 157.929688 264.265625 159.304688 C 263.839844 160.683594 263.351562 162.035156 262.796875 163.367188 C 262.242188 164.695312 261.625 165.996094 260.949219 167.269531 C 260.269531 168.539062 259.53125 169.773438 258.734375 170.976562 C 257.9375 172.175781 257.085938 173.335938 256.175781 174.453125 C 255.265625 175.570312 254.308594 176.644531 253.296875 177.671875 C 252.285156 178.699219 251.226562 179.671875 250.121094 180.597656 C 249.015625 181.523438 247.871094 182.394531 246.683594 183.207031 C 245.492188 184.023438 244.269531 184.777344 243.007812 185.476562 C 241.746094 186.171875 240.457031 186.808594 239.132812 187.382812 C 237.8125 187.957031 236.464844 188.464844 235.09375 188.910156 C 233.722656 189.355469 232.335938 189.730469 230.929688 190.042969 C 229.519531 190.355469 228.101562 190.597656 226.671875 190.773438 C 225.242188 190.945312 223.808594 191.054688 222.367188 191.089844 L 152.191406 191.089844 C 151.035156 191.113281 149.882812 191.191406 148.734375 191.328125 C 147.585938 191.460938 146.449219 191.652344 145.316406 191.894531 C 144.1875 192.140625 143.074219 192.4375 141.972656 192.792969 C 140.871094 193.144531 139.789062 193.550781 138.726562 194.007812 C 137.664062 194.464844 136.628906 194.972656 135.613281 195.527344 C 134.601562 196.085938 133.617188 196.691406 132.664062 197.34375 C 131.710938 197.996094 130.789062 198.695312 129.902344 199.4375 C 129.015625 200.179688 128.167969 200.960938 127.355469 201.785156 C 126.546875 202.609375 125.777344 203.472656 125.046875 204.371094 C 124.320312 205.269531 123.640625 206.199219 123 207.164062 C 122.363281 208.128906 121.773438 209.125 121.234375 210.144531 C 120.691406 211.167969 120.203125 212.210938 119.761719 213.28125 C 119.320312 214.351562 118.933594 215.4375 118.597656 216.546875 C 118.265625 217.652344 117.984375 218.773438 117.757812 219.90625 C 117.53125 221.039062 117.359375 222.183594 117.242188 223.332031 C 117.128906 224.484375 117.066406 225.636719 117.0625 226.792969 L 117.0625 293.691406 C 117.0625 312.726562 133.621094 323.929688 152.191406 329.394531 C 157.871094 331.167969 163.652344 332.507812 169.53125 333.40625 C 175.414062 334.304688 181.328125 334.753906 187.28125 334.753906 C 193.230469 334.753906 199.144531 334.304688 205.027344 333.40625 C 210.90625 332.507812 216.6875 331.167969 222.367188 329.394531 C 240.054688 324.273438 257.496094 313.964844 257.496094 293.691406 L 257.496094 266.90625 L 187.320312 266.90625 L 187.320312 257.980469 L 292.621094 257.980469 C 313.042969 257.980469 320.648438 243.738281 327.75 222.359375 C 329.542969 216.582031 330.894531 210.699219 331.800781 204.714844 C 332.707031 198.730469 333.15625 192.710938 333.15625 186.660156 C 333.15625 180.609375 332.707031 174.589844 331.800781 168.605469 C 330.894531 162.621094 329.542969 156.738281 327.75 150.957031 C 322.703125 130.632812 313.066406 115.339844 292.621094 115.339844 Z M 226.789062 284.761719 C 227.671875 284.746094 228.546875 284.820312 229.414062 284.980469 C 230.28125 285.140625 231.125 285.382812 231.945312 285.707031 C 232.765625 286.035156 233.546875 286.4375 234.289062 286.917969 C 235.027344 287.398438 235.714844 287.949219 236.34375 288.566406 C 236.976562 289.179688 237.542969 289.851562 238.042969 290.582031 C 238.539062 291.308594 238.964844 292.078125 239.308594 292.890625 C 239.65625 293.703125 239.921875 294.542969 240.101562 295.40625 C 240.28125 296.269531 240.375 297.140625 240.382812 298.023438 C 240.394531 298.90625 240.3125 299.78125 240.148438 300.648438 C 239.984375 301.515625 239.738281 302.359375 239.40625 303.175781 C 239.074219 303.996094 238.664062 304.773438 238.179688 305.511719 C 237.695312 306.246094 237.140625 306.929688 236.523438 307.558594 C 235.902344 308.1875 235.226562 308.746094 234.496094 309.242188 C 233.761719 309.738281 232.992188 310.15625 232.175781 310.496094 C 231.363281 310.835938 230.523438 311.097656 229.65625 311.273438 C 228.792969 311.449219 227.917969 311.535156 227.035156 311.539062 C 226.152344 311.542969 225.28125 311.457031 224.414062 311.289062 C 223.546875 311.117188 222.707031 310.863281 221.890625 310.527344 C 221.074219 310.191406 220.300781 309.777344 219.566406 309.289062 C 218.832031 308.796875 218.152344 308.242188 217.527344 307.617188 C 216.902344 306.992188 216.347656 306.3125 215.855469 305.578125 C 215.367188 304.84375 214.953125 304.070312 214.617188 303.253906 C 214.28125 302.4375 214.027344 301.597656 213.855469 300.730469 C 213.6875 299.863281 213.601562 298.992188 213.605469 298.109375 C 213.597656 297.238281 213.679688 296.375 213.84375 295.519531 C 214.007812 294.664062 214.253906 293.832031 214.582031 293.023438 C 214.910156 292.21875 215.3125 291.449219 215.792969 290.722656 C 216.273438 289.996094 216.820312 289.324219 217.429688 288.703125 C 218.042969 288.082031 218.710938 287.527344 219.429688 287.039062 C 220.152344 286.550781 220.914062 286.140625 221.71875 285.800781 C 222.519531 285.460938 223.347656 285.207031 224.203125 285.03125 C 225.054688 284.855469 225.917969 284.765625 226.789062 284.761719 Z M 226.789062 284.761719 " fill-opacity="1" fill-rule="nonzero"/><path fill="#f8a230" d="M 226.789062 284.761719 C 227.671875 284.746094 228.546875 284.820312 229.414062 284.980469 C 230.28125 285.140625 231.125 285.382812 231.945312 285.707031 C 232.765625 286.035156 233.546875 286.4375 234.289062 286.917969 C 235.027344 287.398438 235.714844 287.949219 236.34375 288.566406 C 236.976562 289.179688 237.542969 289.851562 238.042969 290.582031 C 238.539062 291.308594 238.964844 292.078125 239.308594 292.890625 C 239.65625 293.703125 239.921875 294.542969 240.101562 295.40625 C 240.28125 296.269531 240.375 297.140625 240.382812 298.023438 C 240.394531 298.90625 240.3125 299.78125 240.148438 300.648438 C 239.984375 301.515625 239.738281 302.359375 239.40625 303.175781 C 239.074219 303.996094 238.664062 304.773438 238.179688 305.511719 C 237.695312 306.246094 237.140625 306.929688 236.523438 307.558594 C 235.902344 308.1875 235.226562 308.746094 234.496094 309.242188 C 233.761719 309.738281 232.992188 310.15625 232.175781 310.496094 C 231.363281 310.835938 230.523438 311.097656 229.65625 311.273438 C 228.792969 311.449219 227.917969 311.535156 227.035156 311.539062 C 226.152344 311.542969 225.28125 311.457031 224.414062 311.289062 C 223.546875 311.117188 222.707031 310.863281 221.890625 310.527344 C 221.074219 310.191406 220.300781 309.777344 219.566406 309.289062 C 218.832031 308.796875 218.152344 308.242188 217.527344 307.617188 C 216.902344 306.992188 216.347656 306.3125 215.855469 305.578125 C 215.367188 304.84375 214.953125 304.070312 214.617188 303.253906 C 214.28125 302.4375 214.027344 301.597656 213.855469 300.730469 C 213.6875 299.863281 213.601562 298.992188 213.605469 298.109375 C 213.597656 297.238281 213.679688 296.375 213.84375 295.519531 C 214.007812 294.664062 214.253906 293.832031 214.582031 293.023438 C 214.910156 292.21875 215.3125 291.449219 215.792969 290.722656 C 216.273438 289.996094 216.820312 289.324219 217.429688 288.703125 C 218.042969 288.082031 218.710938 287.527344 219.429688 287.039062 C 220.152344 286.550781 220.914062 286.140625 221.71875 285.800781 C 222.519531 285.460938 223.347656 285.207031 224.203125 285.03125 C 225.054688 284.855469 225.917969 284.765625 226.789062 284.761719 Z M 226.789062 284.761719 " fill-opacity="1" fill-rule="nonzero"/><path fill="#f8a230" d="M 185.765625 40.253906 C 174.492188 40.265625 163.300781 41.21875 152.191406 43.117188 C 122.460938 48.371094 117.0625 59.363281 117.0625 79.640625 L 117.0625 106.417969 L 187.320312 106.417969 L 187.320312 115.347656 L 90.695312 115.347656 C 89.417969 115.324219 88.136719 115.355469 86.859375 115.445312 C 85.582031 115.535156 84.3125 115.679688 83.046875 115.878906 C 81.78125 116.078125 80.527344 116.332031 79.285156 116.640625 C 78.042969 116.953125 76.816406 117.316406 75.605469 117.730469 C 74.398438 118.148438 73.207031 118.617188 72.035156 119.140625 C 70.867188 119.660156 69.722656 120.230469 68.601562 120.851562 C 67.484375 121.476562 66.394531 122.144531 65.332031 122.859375 C 64.273438 123.578125 63.246094 124.339844 62.25 125.144531 C 61.253906 125.953125 60.296875 126.800781 59.378906 127.691406 C 58.460938 128.582031 57.578125 129.511719 56.742188 130.480469 C 55.902344 131.449219 55.109375 132.449219 54.355469 133.488281 C 53.605469 134.523438 52.902344 135.59375 52.246094 136.691406 C 51.589844 137.789062 50.980469 138.917969 50.421875 140.066406 C 49.863281 141.21875 49.355469 142.394531 48.898438 143.589844 C 48.445312 144.789062 48.042969 146.003906 47.691406 147.234375 C 47.34375 148.464844 47.046875 149.710938 46.808594 150.96875 C 45.167969 156.777344 43.929688 162.667969 43.101562 168.648438 C 42.273438 174.625 41.859375 180.632812 41.859375 186.667969 C 41.859375 192.703125 42.273438 198.710938 43.101562 204.691406 C 43.929688 210.667969 45.167969 216.5625 46.808594 222.371094 C 51.800781 243.171875 63.726562 257.992188 84.144531 257.992188 L 108.300781 257.992188 L 108.300781 225.886719 C 108.332031 224.460938 108.433594 223.042969 108.601562 221.625 C 108.769531 220.210938 109.003906 218.804688 109.304688 217.410156 C 109.609375 216.015625 109.976562 214.640625 110.410156 213.285156 C 110.84375 211.925781 111.34375 210.589844 111.90625 209.28125 C 112.46875 207.96875 113.089844 206.6875 113.777344 205.4375 C 114.460938 204.1875 115.203125 202.972656 116.003906 201.792969 C 116.804688 200.613281 117.660156 199.476562 118.570312 198.378906 C 119.480469 197.28125 120.441406 196.226562 121.453125 195.222656 C 122.464844 194.21875 123.523438 193.261719 124.625 192.359375 C 125.726562 191.453125 126.871094 190.605469 128.054688 189.808594 C 129.238281 189.015625 130.457031 188.277344 131.710938 187.601562 C 132.964844 186.921875 134.25 186.308594 135.5625 185.753906 C 136.878906 185.195312 138.214844 184.707031 139.574219 184.28125 C 140.9375 183.851562 142.3125 183.492188 143.707031 183.199219 C 145.105469 182.902344 146.511719 182.675781 147.925781 182.515625 C 149.34375 182.355469 150.765625 182.261719 152.191406 182.238281 L 222.367188 182.238281 C 223.527344 182.230469 224.683594 182.164062 225.835938 182.042969 C 226.988281 181.921875 228.132812 181.742188 229.269531 181.507812 C 230.40625 181.273438 231.527344 180.980469 232.636719 180.636719 C 233.742188 180.289062 234.832031 179.890625 235.898438 179.441406 C 236.96875 178.988281 238.011719 178.484375 239.03125 177.929688 C 240.050781 177.375 241.039062 176.769531 241.996094 176.117188 C 242.957031 175.464844 243.882812 174.769531 244.773438 174.027344 C 245.664062 173.28125 246.515625 172.496094 247.328125 171.671875 C 248.144531 170.84375 248.914062 169.980469 249.644531 169.074219 C 250.371094 168.171875 251.054688 167.238281 251.691406 166.265625 C 252.328125 165.296875 252.914062 164.296875 253.453125 163.269531 C 253.992188 162.242188 254.476562 161.191406 254.914062 160.117188 C 255.347656 159.039062 255.730469 157.945312 256.058594 156.832031 C 256.382812 155.722656 256.65625 154.59375 256.871094 153.453125 C 257.089844 152.316406 257.25 151.167969 257.351562 150.011719 C 257.457031 148.855469 257.503906 147.699219 257.492188 146.539062 L 257.492188 79.640625 C 257.421875 78.496094 257.296875 77.355469 257.125 76.21875 C 256.953125 75.082031 256.730469 73.957031 256.457031 72.84375 C 256.183594 71.726562 255.863281 70.625 255.496094 69.535156 C 255.125 68.449219 254.710938 67.378906 254.246094 66.328125 C 253.785156 65.277344 253.277344 64.25 252.722656 63.242188 C 252.171875 62.234375 251.574219 61.253906 250.933594 60.300781 C 250.296875 59.347656 249.613281 58.421875 248.894531 57.527344 C 248.175781 56.632812 247.414062 55.773438 246.621094 54.945312 C 245.824219 54.117188 244.992188 53.328125 244.125 52.570312 C 243.261719 51.816406 242.363281 51.101562 241.433594 50.425781 C 240.507812 49.75 239.550781 49.117188 238.566406 48.523438 C 237.582031 47.933594 236.574219 47.386719 235.542969 46.882812 C 234.507812 46.378906 233.457031 45.921875 232.382812 45.511719 C 231.3125 45.101562 230.222656 44.738281 229.117188 44.421875 C 228.015625 44.105469 226.898438 43.839844 225.769531 43.621094 C 224.644531 43.40625 223.507812 43.238281 222.367188 43.121094 C 210.246094 41.140625 198.046875 40.183594 185.765625 40.253906 Z M 147.769531 61.789062 C 148.652344 61.777344 149.523438 61.847656 150.390625 62.007812 C 151.257812 62.167969 152.101562 62.410156 152.921875 62.734375 C 153.742188 63.0625 154.519531 63.464844 155.261719 63.941406 C 156 64.421875 156.683594 64.96875 157.316406 65.585938 C 157.949219 66.199219 158.515625 66.871094 159.011719 67.597656 C 159.511719 68.324219 159.9375 69.09375 160.28125 69.902344 C 160.628906 70.710938 160.894531 71.546875 161.078125 72.410156 C 161.257812 73.273438 161.355469 74.144531 161.367188 75.027344 C 161.375 75.910156 161.300781 76.78125 161.136719 77.648438 C 160.972656 78.515625 160.726562 79.359375 160.398438 80.175781 C 160.070312 80.992188 159.664062 81.769531 159.183594 82.507812 C 158.699219 83.246094 158.148438 83.929688 157.53125 84.558594 C 156.914062 85.1875 156.242188 85.75 155.511719 86.246094 C 154.785156 86.742188 154.015625 87.164062 153.203125 87.507812 C 152.390625 87.851562 151.554688 88.113281 150.691406 88.289062 C 149.828125 88.46875 148.953125 88.5625 148.074219 88.566406 C 147.191406 88.574219 146.316406 88.496094 145.453125 88.328125 C 144.585938 88.164062 143.746094 87.914062 142.929688 87.582031 C 142.113281 87.25 141.335938 86.839844 140.601562 86.355469 C 139.863281 85.867188 139.183594 85.316406 138.558594 84.695312 C 137.929688 84.074219 137.371094 83.398438 136.878906 82.667969 C 136.382812 81.9375 135.96875 81.167969 135.625 80.351562 C 135.285156 79.539062 135.027344 78.703125 134.851562 77.835938 C 134.679688 76.972656 134.589844 76.101562 134.585938 75.21875 C 134.582031 74.347656 134.660156 73.480469 134.824219 72.621094 C 134.984375 71.765625 135.230469 70.929688 135.558594 70.121094 C 135.886719 69.3125 136.289062 68.542969 136.769531 67.8125 C 137.246094 67.082031 137.792969 66.40625 138.402344 65.78125 C 139.015625 65.160156 139.683594 64.601562 140.402344 64.109375 C 141.125 63.617188 141.886719 63.199219 142.691406 62.855469 C 143.496094 62.515625 144.324219 62.253906 145.179688 62.074219 C 146.03125 61.894531 146.894531 61.800781 147.769531 61.789062 Z M 147.769531 61.789062 " fill-opacity="1" fill-rule="nonzero"/><path fill="#f8a230" d="M 147.769531 61.789062 C 148.652344 61.777344 149.523438 61.847656 150.390625 62.007812 C 151.257812 62.167969 152.101562 62.410156 152.921875 62.734375 C 153.742188 63.0625 154.519531 63.464844 155.261719 63.941406 C 156 64.421875 156.683594 64.96875 157.316406 65.585938 C 157.949219 66.199219 158.515625 66.871094 159.011719 67.597656 C 159.511719 68.324219 159.9375 69.09375 160.28125 69.902344 C 160.628906 70.710938 160.894531 71.546875 161.078125 72.410156 C 161.257812 73.273438 161.355469 74.144531 161.367188 75.027344 C 161.375 75.910156 161.300781 76.78125 161.136719 77.648438 C 160.972656 78.515625 160.726562 79.359375 160.398438 80.175781 C 160.070312 80.992188 159.664062 81.769531 159.183594 82.507812 C 158.699219 83.246094 158.148438 83.929688 157.53125 84.558594 C 156.914062 85.1875 156.242188 85.75 155.511719 86.246094 C 154.785156 86.742188 154.015625 87.164062 153.203125 87.507812 C 152.390625 87.851562 151.554688 88.113281 150.691406 88.289062 C 149.828125 88.46875 148.953125 88.5625 148.074219 88.566406 C 147.191406 88.574219 146.316406 88.496094 145.453125 88.328125 C 144.585938 88.164062 143.746094 87.914062 142.929688 87.582031 C 142.113281 87.25 141.335938 86.839844 140.601562 86.355469 C 139.863281 85.867188 139.183594 85.316406 138.558594 84.695312 C 137.929688 84.074219 137.371094 83.398438 136.878906 82.667969 C 136.382812 81.9375 135.96875 81.167969 135.625 80.351562 C 135.285156 79.539062 135.027344 78.703125 134.851562 77.835938 C 134.679688 76.972656 134.589844 76.101562 134.585938 75.21875 C 134.582031 74.347656 134.660156 73.480469 134.824219 72.621094 C 134.984375 71.765625 135.230469 70.929688 135.558594 70.121094 C 135.886719 69.3125 136.289062 68.542969 136.769531 67.8125 C 137.246094 67.082031 137.792969 66.40625 138.402344 65.78125 C 139.015625 65.160156 139.683594 64.601562 140.402344 64.109375 C 141.125 63.617188 141.886719 63.199219 142.691406 62.855469 C 143.496094 62.515625 144.324219 62.253906 145.179688 62.074219 C 146.03125 61.894531 146.894531 61.800781 147.769531 61.789062 Z M 147.769531 61.789062 " fill-opacity="1" fill-rule="nonzero"/><g clip-path="url(#360dc08cb6)"><path fill="#ffffff" d="M 316.859375 22.054688 L 295.71875 0.914062 C 295.425781 0.621094 295.089844 0.394531 294.707031 0.238281 C 294.324219 0.078125 293.925781 0 293.511719 0 C 293.101562 0 292.703125 0.078125 292.320312 0.238281 C 291.9375 0.394531 291.601562 0.621094 291.308594 0.914062 L 286.921875 5.300781 L 292.488281 10.871094 C 293.160156 10.640625 293.839844 10.609375 294.527344 10.769531 C 295.21875 10.929688 295.8125 11.261719 296.3125 11.765625 C 296.808594 12.265625 297.136719 12.863281 297.292969 13.554688 C 297.449219 14.242188 297.414062 14.921875 297.179688 15.59375 L 302.546875 20.960938 C 302.941406 20.820312 303.351562 20.75 303.773438 20.75 C 304.191406 20.75 304.601562 20.820312 305 20.957031 C 305.398438 21.097656 305.757812 21.296875 306.089844 21.5625 C 306.417969 21.824219 306.691406 22.132812 306.917969 22.488281 C 307.140625 22.847656 307.296875 23.230469 307.390625 23.640625 C 307.480469 24.050781 307.503906 24.464844 307.457031 24.882812 C 307.40625 25.300781 307.289062 25.699219 307.105469 26.078125 C 306.921875 26.457031 306.679688 26.792969 306.378906 27.089844 C 306.078125 27.394531 305.730469 27.636719 305.34375 27.824219 C 304.957031 28.007812 304.546875 28.121094 304.121094 28.164062 C 303.691406 28.207031 303.269531 28.179688 302.851562 28.074219 C 302.4375 27.96875 302.046875 27.800781 301.691406 27.5625 C 301.332031 27.324219 301.027344 27.03125 300.769531 26.6875 C 300.515625 26.339844 300.324219 25.964844 300.199219 25.550781 C 300.074219 25.140625 300.023438 24.71875 300.042969 24.292969 C 300.0625 23.863281 300.15625 23.449219 300.320312 23.050781 L 295.320312 18.046875 L 295.320312 31.21875 C 295.570312 31.34375 295.804688 31.496094 296.023438 31.675781 C 296.242188 31.851562 296.4375 32.054688 296.609375 32.277344 C 296.78125 32.5 296.925781 32.738281 297.042969 32.992188 C 297.160156 33.25 297.246094 33.511719 297.304688 33.789062 C 297.363281 34.0625 297.386719 34.34375 297.382812 34.625 C 297.375 34.90625 297.339844 35.183594 297.269531 35.453125 C 297.199219 35.726562 297.101562 35.988281 296.972656 36.238281 C 296.84375 36.488281 296.691406 36.722656 296.507812 36.9375 C 296.328125 37.152344 296.125 37.34375 295.898438 37.511719 C 295.675781 37.683594 295.433594 37.824219 295.175781 37.9375 C 294.917969 38.050781 294.652344 38.136719 294.375 38.1875 C 294.101562 38.242188 293.820312 38.261719 293.539062 38.253906 C 293.257812 38.242188 292.984375 38.203125 292.710938 38.128906 C 292.4375 38.054688 292.179688 37.953125 291.929688 37.820312 C 291.683594 37.6875 291.453125 37.53125 291.238281 37.347656 C 291.027344 37.164062 290.839844 36.957031 290.671875 36.730469 C 290.507812 36.5 290.371094 36.257812 290.257812 36 C 290.148438 35.742188 290.070312 35.472656 290.019531 35.195312 C 289.96875 34.917969 289.953125 34.640625 289.96875 34.359375 C 289.980469 34.078125 290.027344 33.800781 290.105469 33.53125 C 290.179688 33.261719 290.285156 33.003906 290.421875 32.757812 C 290.558594 32.507812 290.71875 32.28125 290.90625 32.070312 C 291.09375 31.863281 291.304688 31.675781 291.53125 31.515625 C 291.761719 31.351562 292.007812 31.21875 292.269531 31.109375 L 292.269531 17.816406 C 291.8125 17.628906 291.40625 17.359375 291.054688 17.011719 C 290.707031 16.664062 290.4375 16.257812 290.246094 15.800781 C 290.058594 15.347656 289.964844 14.871094 289.964844 14.375 C 289.964844 13.882812 290.0625 13.40625 290.253906 12.949219 L 284.765625 7.460938 L 270.269531 21.957031 C 269.976562 22.25 269.75 22.585938 269.59375 22.96875 C 269.433594 23.351562 269.355469 23.746094 269.355469 24.160156 C 269.355469 24.574219 269.433594 24.972656 269.59375 25.355469 C 269.75 25.734375 269.976562 26.074219 270.269531 26.367188 L 291.410156 47.507812 C 291.703125 47.800781 292.042969 48.027344 292.421875 48.183594 C 292.804688 48.34375 293.203125 48.421875 293.617188 48.421875 C 294.03125 48.421875 294.425781 48.34375 294.808594 48.183594 C 295.191406 48.027344 295.527344 47.800781 295.820312 47.507812 L 316.863281 26.464844 C 317.15625 26.171875 317.382812 25.835938 317.539062 25.453125 C 317.699219 25.070312 317.777344 24.675781 317.777344 24.261719 C 317.777344 23.847656 317.699219 23.449219 317.539062 23.066406 C 317.382812 22.6875 317.15625 22.347656 316.863281 22.054688 " fill-opacity="1" fill-rule="nonzero"/></g><g clip-path="url(#dcc0f8454a)"><path fill="#ffffff" d="M 350.789062 0 C 337.410156 0 326.578125 10.835938 326.578125 24.210938 C 326.578125 34.925781 333.507812 43.972656 343.128906 47.179688 C 344.339844 47.394531 344.792969 46.667969 344.792969 46.03125 C 344.792969 45.457031 344.765625 43.550781 344.765625 41.523438 C 338.683594 42.640625 337.109375 40.039062 336.625 38.675781 C 336.351562 37.980469 335.171875 35.832031 334.140625 35.257812 C 333.292969 34.804688 332.085938 33.683594 334.113281 33.652344 C 336.019531 33.621094 337.378906 35.410156 337.835938 36.136719 C 340.011719 39.796875 343.492188 38.769531 344.886719 38.132812 C 345.097656 36.558594 345.734375 35.5 346.429688 34.894531 C 341.042969 34.289062 335.414062 32.199219 335.414062 22.941406 C 335.414062 20.308594 336.351562 18.128906 337.894531 16.433594 C 337.652344 15.828125 336.804688 13.347656 338.136719 10.015625 C 338.136719 10.015625 340.164062 9.382812 344.792969 12.5 C 346.730469 11.953125 348.789062 11.683594 350.847656 11.683594 C 352.90625 11.683594 354.964844 11.953125 356.898438 12.5 C 361.53125 9.351562 363.558594 10.015625 363.558594 10.015625 C 364.890625 13.347656 364.042969 15.828125 363.800781 16.433594 C 365.34375 18.128906 366.28125 20.277344 366.28125 22.941406 C 366.28125 32.230469 360.621094 34.289062 355.234375 34.894531 C 356.113281 35.652344 356.871094 37.101562 356.871094 39.371094 C 356.871094 42.609375 356.839844 45.214844 356.839844 46.03125 C 356.839844 46.667969 357.292969 47.421875 358.503906 47.179688 C 363.3125 45.558594 367.488281 42.46875 370.445312 38.347656 C 373.40625 34.226562 374.996094 29.285156 375 24.210938 C 375 10.835938 364.164062 0 350.789062 0 Z M 350.789062 0 " fill-opacity="1" fill-rule="evenodd"/></g></svg>