<svg xmlns="http://www.w3.org/2000/svg" xmlns:xlink="http://www.w3.org/1999/xlink" width="487" zoomAndPan="magnify" viewBox="0 0 365.25 47.25" height="63" preserveAspectRatio="xMidYMid meet" version="1.0"><defs><clipPath id="5b476ab33b"><path d="M 105.589844 0 L 146.480469 0 L 146.480469 46 L 105.589844 46 Z M 105.589844 0 " clip-rule="nonzero"/></clipPath><clipPath id="f2901624ad"><path d="M 155.722656 0 L 196.613281 0 L 196.613281 46 L 155.722656 46 Z M 155.722656 0 " clip-rule="nonzero"/></clipPath><clipPath id="6f0b9ddc3b"><path d="M 77 12 L 93 12 L 93 46.511719 L 77 46.511719 Z M 77 12 " clip-rule="nonzero"/></clipPath><clipPath id="1841049505"><path d="M 205.660156 0 L 252.015625 0 L 252.015625 46.355469 L 205.660156 46.355469 Z M 205.660156 0 " clip-rule="nonzero"/></clipPath><clipPath id="216702337d"><path d="M 260.472656 0 L 307 0 L 307 46.511719 L 260.472656 46.511719 Z M 260.472656 0 " clip-rule="nonzero"/></clipPath><clipPath id="dcd0e7fdda"><path d="M 315.28125 0 L 361.632812 0 L 361.632812 46 L 315.28125 46 Z M 315.28125 0 " clip-rule="nonzero"/></clipPath></defs><g clip-path="url(#5b476ab33b)"><path fill="#f8a230" d="M 146.257812 0.382812 C 146.066406 0.179688 145.800781 0.0625 145.523438 0.0625 L 106.648438 0.0625 C 106.371094 0.0625 106.105469 0.179688 105.914062 0.382812 C 105.726562 0.589844 105.632812 0.867188 105.660156 1.144531 L 109.160156 40.371094 C 109.199219 40.78125 109.484375 41.125 109.878906 41.238281 L 125.808594 45.789062 C 125.898438 45.8125 125.988281 45.828125 126.082031 45.828125 C 126.175781 45.828125 126.265625 45.8125 126.355469 45.789062 L 142.296875 41.238281 C 142.691406 41.125 142.976562 40.78125 143.015625 40.371094 L 146.515625 1.144531 C 146.539062 0.867188 146.445312 0.589844 146.257812 0.382812 Z M 137.875 13.910156 L 119.15625 13.910156 L 119.601562 18.972656 L 137.421875 18.972656 L 136.085938 33.9375 L 126.082031 36.960938 L 125.980469 36.933594 L 116.089844 33.9375 L 115.550781 27.835938 L 120.394531 27.835938 L 120.609375 30.203125 L 126.136719 31.363281 L 131.566406 30.203125 L 132.144531 23.800781 L 115.1875 23.800781 L 113.871094 9.070312 L 138.308594 9.070312 Z M 137.875 13.910156 " fill-opacity="1" fill-rule="nonzero"/></g><g clip-path="url(#f2901624ad)"><path fill="#f8a230" d="M 196.601562 0 L 192.996094 40.867188 L 176.167969 45.675781 L 159.339844 40.867188 L 155.734375 0 Z M 166.3125 26.445312 L 171.121094 26.445312 L 171.238281 29.449219 L 176.167969 31.128906 L 181.097656 29.449219 L 181.457031 24.039062 L 170.882812 24.039062 L 170.636719 19.230469 L 181.699219 19.230469 L 182.054688 14.425781 L 165.472656 14.425781 L 165.109375 9.617188 L 187.109375 9.617188 L 186.507812 19.230469 L 185.664062 33.054688 L 176.167969 36.183594 L 166.675781 33.054688 Z M 166.3125 26.445312 " fill-opacity="1" fill-rule="evenodd"/></g><path fill="#f8a230" d="M 79.792969 0 L 71.726562 0 L 71.726562 11.457031 C 70.523438 11.167969 69.527344 11.070312 68.21875 11.070312 C 59.792969 11.070312 54.351562 16.042969 54.351562 23.707031 C 54.351562 31.660156 59.480469 35.800781 69.332031 35.8125 C 72.621094 35.8125 75.660156 35.523438 79.792969 34.785156 Z M 69.289062 17.339844 C 70.289062 17.339844 71.066406 17.433594 72.011719 17.726562 L 72.011719 29.792969 C 70.859375 29.9375 70.132812 29.984375 69.238281 29.984375 C 65.109375 29.984375 62.855469 27.777344 62.855469 23.785156 C 62.855469 19.679688 65.210938 17.339844 69.289062 17.339844 Z M 69.289062 17.339844 " fill-opacity="1" fill-rule="evenodd"/><g clip-path="url(#6f0b9ddc3b)"><path fill="#f8a230" d="M 92.980469 29.421875 L 92.980469 12.003906 L 84.925781 12.003906 L 84.925781 26.828125 C 84.925781 33.367188 84.5625 35.855469 83.410156 38.003906 C 82.3125 40.101562 80.585938 41.476562 77.027344 43.035156 L 84.511719 46.355469 C 88.070312 44.6875 89.792969 43.179688 91.101562 40.789062 C 92.503906 38.304688 92.980469 35.417969 92.980469 29.421875 Z M 92.980469 29.421875 " fill-opacity="1" fill-rule="nonzero"/></g><path fill="#f8a230" d="M 92.179688 0 L 84.113281 0 L 84.113281 7.710938 L 92.179688 7.710938 Z M 92.179688 0 " fill-opacity="1" fill-rule="nonzero"/><path fill="#f8a230" d="M 36.507812 13.238281 L 36.507812 17.535156 C 36.503906 17.933594 36.460938 18.328125 36.382812 18.71875 C 36.300781 19.109375 36.183594 19.484375 36.03125 19.851562 C 35.878906 20.21875 35.691406 20.570312 35.472656 20.902344 C 35.253906 21.234375 35.003906 21.539062 34.722656 21.824219 C 34.445312 22.105469 34.140625 22.359375 33.8125 22.585938 C 33.484375 22.8125 33.136719 23.003906 32.773438 23.160156 C 32.40625 23.320312 32.03125 23.441406 31.644531 23.527344 C 31.253906 23.613281 30.859375 23.660156 30.464844 23.671875 L 20.796875 23.671875 C 20.480469 23.679688 20.164062 23.714844 19.851562 23.78125 C 19.539062 23.851562 19.238281 23.945312 18.945312 24.074219 C 18.652344 24.199219 18.371094 24.351562 18.109375 24.53125 C 17.84375 24.714844 17.601562 24.917969 17.378906 25.144531 C 17.152344 25.371094 16.953125 25.621094 16.777344 25.886719 C 16.601562 26.152344 16.453125 26.433594 16.332031 26.726562 C 16.210938 27.023438 16.117188 27.328125 16.054688 27.640625 C 15.992188 27.953125 15.960938 28.269531 15.960938 28.589844 L 15.960938 37.800781 C 15.960938 40.425781 18.242188 41.96875 20.796875 42.71875 C 22.371094 43.210938 23.984375 43.457031 25.632812 43.457031 C 27.28125 43.457031 28.890625 43.210938 30.464844 42.71875 C 32.898438 42.015625 35.300781 40.59375 35.300781 37.800781 L 35.300781 34.113281 L 25.636719 34.113281 L 25.636719 32.882812 L 40.140625 32.882812 C 42.953125 32.882812 44 30.921875 44.976562 27.976562 C 45.472656 26.378906 45.722656 24.738281 45.722656 23.0625 C 45.722656 21.382812 45.472656 19.746094 44.976562 18.144531 C 44.28125 15.34375 42.957031 13.238281 40.140625 13.238281 Z M 31.074219 36.574219 C 31.316406 36.570312 31.554688 36.613281 31.78125 36.703125 C 32.011719 36.792969 32.214844 36.925781 32.390625 37.097656 C 32.566406 37.269531 32.699219 37.464844 32.796875 37.691406 C 32.894531 37.917969 32.941406 38.152344 32.945312 38.398438 C 32.949219 38.644531 32.902344 38.882812 32.808594 39.109375 C 32.71875 39.335938 32.585938 39.539062 32.414062 39.710938 C 32.242188 39.886719 32.042969 40.023438 31.816406 40.117188 C 31.589844 40.210938 31.351562 40.261719 31.105469 40.261719 C 30.859375 40.261719 30.625 40.214844 30.398438 40.121094 C 30.171875 40.027344 29.96875 39.894531 29.796875 39.71875 C 29.625 39.546875 29.488281 39.347656 29.394531 39.121094 C 29.300781 38.890625 29.257812 38.65625 29.257812 38.410156 C 29.253906 38.167969 29.300781 37.933594 29.390625 37.710938 C 29.484375 37.484375 29.613281 37.289062 29.785156 37.117188 C 29.953125 36.941406 30.152344 36.808594 30.375 36.714844 C 30.597656 36.621094 30.832031 36.574219 31.074219 36.574219 Z M 31.074219 36.574219 " fill-opacity="1" fill-rule="nonzero"/><path fill="#f8a230" d="M 31.074219 36.574219 C 31.316406 36.570312 31.554688 36.613281 31.78125 36.703125 C 32.011719 36.792969 32.214844 36.925781 32.390625 37.097656 C 32.566406 37.269531 32.699219 37.464844 32.796875 37.691406 C 32.894531 37.917969 32.941406 38.152344 32.945312 38.398438 C 32.949219 38.644531 32.902344 38.882812 32.808594 39.109375 C 32.71875 39.335938 32.585938 39.539062 32.414062 39.710938 C 32.242188 39.886719 32.042969 40.023438 31.816406 40.117188 C 31.589844 40.210938 31.351562 40.261719 31.105469 40.261719 C 30.859375 40.261719 30.625 40.214844 30.398438 40.121094 C 30.171875 40.027344 29.96875 39.894531 29.796875 39.71875 C 29.625 39.546875 29.488281 39.347656 29.394531 39.121094 C 29.300781 38.890625 29.257812 38.65625 29.257812 38.410156 C 29.253906 38.167969 29.300781 37.933594 29.390625 37.710938 C 29.484375 37.484375 29.613281 37.289062 29.785156 37.117188 C 29.953125 36.941406 30.152344 36.808594 30.375 36.714844 C 30.597656 36.621094 30.832031 36.574219 31.074219 36.574219 Z M 31.074219 36.574219 " fill-opacity="1" fill-rule="nonzero"/><path fill="#f8a230" d="M 25.421875 2.898438 C 23.871094 2.898438 22.328125 3.03125 20.796875 3.292969 C 16.703125 4.015625 15.960938 5.53125 15.960938 8.320312 L 15.960938 12.011719 L 25.636719 12.011719 L 25.636719 13.238281 L 12.328125 13.238281 C 11.617188 13.226562 10.925781 13.335938 10.25 13.566406 C 9.578125 13.800781 8.964844 14.140625 8.410156 14.589844 C 7.859375 15.039062 7.398438 15.566406 7.035156 16.179688 C 6.667969 16.789062 6.417969 17.445312 6.285156 18.144531 C 5.359375 21.421875 5.359375 24.703125 6.285156 27.980469 C 6.972656 30.84375 8.613281 32.886719 11.425781 32.886719 L 14.753906 32.886719 L 14.753906 28.464844 C 14.761719 28.070312 14.808594 27.679688 14.890625 27.296875 C 14.976562 26.910156 15.09375 26.539062 15.25 26.175781 C 15.40625 25.816406 15.59375 25.472656 15.816406 25.144531 C 16.035156 24.820312 16.285156 24.519531 16.566406 24.242188 C 16.84375 23.964844 17.148438 23.714844 17.472656 23.496094 C 17.800781 23.277344 18.144531 23.089844 18.507812 22.9375 C 18.871094 22.78125 19.246094 22.664062 19.628906 22.585938 C 20.015625 22.503906 20.40625 22.460938 20.796875 22.453125 L 30.464844 22.453125 C 30.785156 22.449219 31.101562 22.417969 31.414062 22.351562 C 31.726562 22.285156 32.03125 22.191406 32.328125 22.066406 C 32.621094 21.941406 32.902344 21.789062 33.167969 21.609375 C 33.433594 21.429688 33.675781 21.226562 33.902344 20.996094 C 34.125 20.769531 34.328125 20.519531 34.503906 20.253906 C 34.679688 19.984375 34.824219 19.703125 34.945312 19.40625 C 35.066406 19.109375 35.15625 18.804688 35.214844 18.488281 C 35.277344 18.171875 35.304688 17.855469 35.300781 17.535156 L 35.300781 8.320312 C 35.261719 7.683594 35.113281 7.074219 34.855469 6.488281 C 34.597656 5.902344 34.246094 5.382812 33.804688 4.921875 C 33.359375 4.460938 32.851562 4.089844 32.277344 3.808594 C 31.703125 3.53125 31.097656 3.359375 30.464844 3.292969 C 28.792969 3.019531 27.113281 2.886719 25.421875 2.898438 Z M 20.191406 5.863281 C 20.433594 5.859375 20.671875 5.902344 20.898438 5.992188 C 21.125 6.085938 21.328125 6.214844 21.503906 6.386719 C 21.679688 6.558594 21.816406 6.753906 21.914062 6.980469 C 22.007812 7.207031 22.058594 7.441406 22.0625 7.6875 C 22.066406 7.933594 22.019531 8.167969 21.929688 8.394531 C 21.835938 8.625 21.707031 8.824219 21.535156 9 C 21.363281 9.175781 21.164062 9.308594 20.9375 9.40625 C 20.710938 9.5 20.476562 9.550781 20.230469 9.550781 C 19.984375 9.554688 19.75 9.507812 19.523438 9.414062 C 19.296875 9.324219 19.09375 9.191406 18.921875 9.019531 C 18.746094 8.84375 18.613281 8.644531 18.515625 8.421875 C 18.421875 8.195312 18.375 7.957031 18.375 7.714844 C 18.371094 7.46875 18.417969 7.234375 18.507812 7.011719 C 18.597656 6.785156 18.730469 6.585938 18.898438 6.414062 C 19.070312 6.238281 19.265625 6.105469 19.488281 6.011719 C 19.714844 5.914062 19.945312 5.867188 20.191406 5.863281 Z M 20.191406 5.863281 " fill-opacity="1" fill-rule="nonzero"/><path fill="#f8a230" d="M 20.191406 5.863281 C 20.433594 5.859375 20.671875 5.902344 20.898438 5.992188 C 21.125 6.085938 21.328125 6.214844 21.503906 6.386719 C 21.679688 6.558594 21.816406 6.753906 21.914062 6.980469 C 22.007812 7.207031 22.058594 7.441406 22.0625 7.6875 C 22.066406 7.933594 22.019531 8.167969 21.929688 8.394531 C 21.835938 8.625 21.707031 8.824219 21.535156 9 C 21.363281 9.175781 21.164062 9.308594 20.9375 9.40625 C 20.710938 9.5 20.476562 9.550781 20.230469 9.550781 C 19.984375 9.554688 19.75 9.507812 19.523438 9.414062 C 19.296875 9.324219 19.09375 9.191406 18.921875 9.019531 C 18.746094 8.84375 18.613281 8.644531 18.515625 8.421875 C 18.421875 8.195312 18.375 7.957031 18.375 7.714844 C 18.371094 7.46875 18.417969 7.234375 18.507812 7.011719 C 18.597656 6.785156 18.730469 6.585938 18.898438 6.414062 C 19.070312 6.238281 19.265625 6.105469 19.488281 6.011719 C 19.714844 5.914062 19.945312 5.867188 20.191406 5.863281 Z M 20.191406 5.863281 " fill-opacity="1" fill-rule="nonzero"/><g clip-path="url(#1841049505)"><path fill="#f8a230" d="M 205.660156 0 L 252.015625 0 L 252.015625 46.355469 L 205.660156 46.355469 Z M 241.097656 38.859375 C 238.949219 38.859375 237.734375 37.738281 236.800781 36.214844 L 233.261719 38.269531 C 234.539062 40.796875 237.152344 42.726562 241.199219 42.726562 C 245.335938 42.726562 248.414062 40.578125 248.414062 36.65625 C 248.414062 33.015625 246.324219 31.398438 242.625 29.8125 L 241.535156 29.34375 C 239.667969 28.535156 238.859375 28.007812 238.859375 26.699219 C 238.859375 25.644531 239.667969 24.832031 240.941406 24.832031 C 242.191406 24.832031 243 25.359375 243.746094 26.699219 L 247.136719 24.523438 C 245.703125 22 243.710938 21.035156 240.941406 21.035156 C 237.050781 21.035156 234.5625 23.523438 234.5625 26.789062 C 234.5625 30.335938 236.652344 32.011719 239.792969 33.351562 L 240.882812 33.820312 C 242.871094 34.6875 244.054688 35.21875 244.054688 36.710938 C 244.054688 37.957031 242.902344 38.859375 241.097656 38.859375 Z M 224.214844 38.832031 C 222.71875 38.832031 222.097656 37.804688 221.414062 36.589844 L 217.867188 38.738281 C 218.894531 40.910156 220.914062 42.71875 224.402344 42.71875 C 228.261719 42.71875 230.90625 40.664062 230.90625 36.152344 L 230.90625 21.285156 L 226.550781 21.285156 L 226.550781 36.09375 C 226.550781 38.273438 225.648438 38.832031 224.214844 38.832031 Z M 224.214844 38.832031 " fill-opacity="1" fill-rule="evenodd"/></g><g clip-path="url(#216702337d)"><path fill="#f8a230" d="M 305.949219 21.109375 L 285.710938 0.875 C 285.429688 0.59375 285.109375 0.378906 284.742188 0.226562 C 284.375 0.0742188 283.996094 0 283.601562 0 C 283.203125 0 282.824219 0.0742188 282.457031 0.226562 C 282.09375 0.378906 281.769531 0.59375 281.488281 0.875 L 277.289062 5.074219 L 282.621094 10.40625 C 283.261719 10.1875 283.910156 10.15625 284.570312 10.308594 C 285.230469 10.464844 285.800781 10.78125 286.277344 11.261719 C 286.753906 11.742188 287.070312 12.3125 287.21875 12.976562 C 287.371094 13.636719 287.332031 14.285156 287.109375 14.925781 L 292.246094 20.066406 C 292.625 19.929688 293.019531 19.863281 293.421875 19.863281 C 293.824219 19.863281 294.214844 19.929688 294.59375 20.0625 C 294.976562 20.195312 295.324219 20.386719 295.636719 20.640625 C 295.953125 20.890625 296.214844 21.1875 296.429688 21.527344 C 296.644531 21.871094 296.796875 22.238281 296.882812 22.632812 C 296.972656 23.023438 296.992188 23.421875 296.945312 23.820312 C 296.898438 24.222656 296.789062 24.601562 296.613281 24.964844 C 296.433594 25.324219 296.203125 25.648438 295.917969 25.933594 C 295.628906 26.222656 295.296875 26.457031 294.925781 26.636719 C 294.554688 26.8125 294.164062 26.921875 293.753906 26.960938 C 293.34375 27.003906 292.941406 26.972656 292.539062 26.875 C 292.140625 26.777344 291.769531 26.613281 291.429688 26.382812 C 291.085938 26.15625 290.792969 25.875 290.546875 25.546875 C 290.300781 25.214844 290.117188 24.855469 290 24.460938 C 289.878906 24.066406 289.832031 23.664062 289.851562 23.253906 C 289.871094 22.84375 289.960938 22.449219 290.117188 22.066406 L 285.328125 17.277344 L 285.328125 29.886719 C 285.570312 30.007812 285.792969 30.152344 286.003906 30.320312 C 286.210938 30.492188 286.398438 30.683594 286.5625 30.898438 C 286.726562 31.109375 286.867188 31.339844 286.976562 31.582031 C 287.089844 31.828125 287.175781 32.082031 287.230469 32.347656 C 287.285156 32.609375 287.308594 32.875 287.304688 33.144531 C 287.296875 33.414062 287.261719 33.679688 287.195312 33.941406 C 287.128906 34.203125 287.035156 34.453125 286.914062 34.691406 C 286.789062 34.929688 286.640625 35.152344 286.46875 35.359375 C 286.292969 35.566406 286.101562 35.75 285.882812 35.910156 C 285.667969 36.074219 285.4375 36.207031 285.191406 36.316406 C 284.945312 36.425781 284.691406 36.507812 284.425781 36.558594 C 284.160156 36.609375 283.894531 36.628906 283.625 36.621094 C 283.355469 36.609375 283.09375 36.570312 282.832031 36.5 C 282.570312 36.429688 282.324219 36.332031 282.085938 36.207031 C 281.847656 36.078125 281.625 35.929688 281.421875 35.75 C 281.21875 35.574219 281.039062 35.378906 280.878906 35.160156 C 280.722656 34.941406 280.589844 34.710938 280.484375 34.460938 C 280.378906 34.214844 280.304688 33.957031 280.253906 33.691406 C 280.207031 33.425781 280.191406 33.160156 280.207031 32.890625 C 280.21875 32.621094 280.261719 32.359375 280.335938 32.097656 C 280.410156 31.839844 280.511719 31.59375 280.640625 31.355469 C 280.769531 31.121094 280.925781 30.902344 281.105469 30.703125 C 281.285156 30.5 281.484375 30.324219 281.703125 30.167969 C 281.925781 30.011719 282.160156 29.882812 282.40625 29.78125 L 282.40625 17.054688 C 281.96875 16.875 281.582031 16.617188 281.246094 16.285156 C 280.914062 15.949219 280.652344 15.566406 280.472656 15.128906 C 280.292969 14.691406 280.203125 14.234375 280.203125 13.761719 C 280.203125 13.289062 280.296875 12.832031 280.476562 12.398438 L 275.226562 7.140625 L 261.347656 21.019531 C 261.070312 21.296875 260.851562 21.621094 260.703125 21.988281 C 260.550781 22.351562 260.472656 22.734375 260.472656 23.128906 C 260.472656 23.523438 260.550781 23.90625 260.703125 24.269531 C 260.851562 24.636719 261.070312 24.960938 261.347656 25.238281 L 281.589844 45.480469 C 281.867188 45.757812 282.191406 45.972656 282.554688 46.125 C 282.921875 46.277344 283.304688 46.351562 283.699219 46.351562 C 284.09375 46.351562 284.476562 46.277344 284.839844 46.125 C 285.207031 45.972656 285.527344 45.757812 285.808594 45.480469 L 305.953125 25.335938 C 306.234375 25.054688 306.449219 24.734375 306.601562 24.367188 C 306.75 24 306.828125 23.621094 306.828125 23.226562 C 306.828125 22.828125 306.75 22.449219 306.601562 22.082031 C 306.449219 21.714844 306.234375 21.394531 305.953125 21.113281 " fill-opacity="1" fill-rule="nonzero"/></g><g clip-path="url(#dcd0e7fdda)"><path fill="#f8a230" d="M 338.457031 0 C 325.652344 0 315.28125 10.371094 315.28125 23.175781 C 315.28125 33.433594 321.914062 42.09375 331.128906 45.164062 C 332.285156 45.367188 332.71875 44.671875 332.71875 44.066406 C 332.71875 43.515625 332.691406 41.6875 332.691406 39.75 C 326.867188 40.820312 325.363281 38.328125 324.898438 37.023438 C 324.636719 36.359375 323.507812 34.300781 322.523438 33.75 C 321.710938 33.316406 320.550781 32.246094 322.492188 32.214844 C 324.320312 32.1875 325.621094 33.894531 326.058594 34.589844 C 328.144531 38.097656 331.476562 37.113281 332.808594 36.503906 C 333.011719 34.996094 333.617188 33.984375 334.285156 33.402344 C 329.128906 32.824219 323.738281 30.824219 323.738281 21.960938 C 323.738281 19.441406 324.636719 17.355469 326.113281 15.730469 C 325.882812 15.152344 325.070312 12.777344 326.347656 9.589844 C 326.347656 9.589844 328.289062 8.980469 332.71875 11.964844 C 334.574219 11.445312 336.542969 11.183594 338.515625 11.183594 C 340.484375 11.183594 342.453125 11.445312 344.308594 11.964844 C 348.742188 8.953125 350.683594 9.589844 350.683594 9.589844 C 351.957031 12.777344 351.144531 15.152344 350.914062 15.730469 C 352.390625 17.355469 353.289062 19.410156 353.289062 21.960938 C 353.289062 30.855469 347.871094 32.824219 342.714844 33.402344 C 343.554688 34.128906 344.28125 35.519531 344.28125 37.691406 C 344.28125 40.792969 344.25 43.28125 344.25 44.066406 C 344.25 44.671875 344.6875 45.398438 345.84375 45.164062 C 350.445312 43.613281 354.445312 40.65625 357.277344 36.710938 C 360.109375 32.765625 361.632812 28.03125 361.632812 23.175781 C 361.632812 10.371094 351.261719 0 338.457031 0 Z M 338.457031 0 " fill-opacity="1" fill-rule="evenodd"/></g></svg>